<svg xmlns="http://www.w3.org/2000/svg">
  <symbol
    viewBox="0 0 20 20"
    id="phone"
  >
    <path
      d="M2 3a1 1 0 011-1h2.153a1 1 0 01.986.836l.74 4.435a1 1 0 01-.54 1.06l-1.548.773a11.037 11.037 0 006.105 6.105l.774-1.548a1 1 0 011.059-.54l4.435.74a1 1 0 01.836.986V17a1 1 0 01-1 1h-2C7.82 18 2 12.18 2 5V3z"
    />
  </symbol>
  <symbol
    viewBox="0 0 24 24"
    id="email"
  >
    <path
      d="M1.5 8.67v8.58a3 3 0 0 0 3 3h15a3 3 0 0 0 3-3V8.67l-8.928 5.493a3 3 0 0 1-3.144 0L1.5 8.67Z"
    />
    <path
      d="M22.5 6.908V6.75a3 3 0 0 0-3-3h-15a3 3 0 0 0-3 3v.158l9.714 5.978a1.5 1.5 0 0 0 1.572 0L22.5 6.908Z"
    />
  </symbol>
  <symbol
    viewBox="0 0 24 24"
    id="location"
  >
    <path
      fill-rule="evenodd"
      d="m11.54 22.351.07.04.028.016a.76.76 0 0 0 .723 0l.028-.015.071-.041a16.975 16.975 0 0 0 1.144-.742 19.58 19.58 0 0 0 2.683-2.282c1.944-1.99 3.963-4.98 3.963-8.827a8.25 8.25 0 0 0-16.5 0c0 3.846 2.02 6.837 3.963 8.827a19.58 19.58 0 0 0 2.682 2.282 16.975 16.975 0 0 0 1.145.742ZM12 13.5a3 3 0 1 0 0-6 3 3 0 0 0 0 6Z"
      clip-rule="evenodd"
    />
  </symbol>
  <symbol
    viewBox="0 0 20 20"
    id="close"
  >
    <path
      fill-rule="evenodd"
      d="M4.293 4.293a1 1 0 011.414 0L10 8.586l4.293-4.293a1 1 0 111.414 1.414L11.414 10l4.293 4.293a1 1 0 01-1.414 1.414L10 11.414l-4.293 4.293a1 1 0 01-1.414-1.414L8.586 10 4.293 5.707a1 1 0 010-1.414z"
      clip-rule="evenodd"
    />
  </symbol>
  <symbol
    viewBox="0 0 20 20"
    fill="#000"
    id="panel-arrow"
  >
    <path
      fill-rule="evenodd"
      d="M5.293 7.293a1 1 0 011.414 0L10 10.586l3.293-3.293a1 1 0 111.414 1.414l-4 4a1 1 0 01-1.414 0l-4-4a1 1 0 010-1.414z"
      clip-rule="evenodd"
    />
  </symbol>

  <symbol
    viewBox="0 0 400 400"
    id="twitter"
  >
    <g data-name="Dark Blue">
      <rect
        fill="#1da1f2"
        width="400"
        height="400"
      />
    </g>
    <g data-name="Logo — FIXED">
      <path
        fill="#fff"
        d="M153.62,301.59c94.34,0,145.94-78.16,145.94-145.94,0-2.22,0-4.43-.15-6.63A104.36,104.36,0,0,0,325,122.47a102.38,102.38,0,0,1-29.46,8.07,51.47,51.47,0,0,0,22.55-28.37,102.79,102.79,0,0,1-32.57,12.45,51.34,51.34,0,0,0-87.41,46.78A145.62,145.62,0,0,1,92.4,107.81a51.33,51.33,0,0,0,15.88,68.47A50.91,50.91,0,0,1,85,169.86c0,.21,0,.43,0,.65a51.31,51.31,0,0,0,41.15,50.28,51.21,51.21,0,0,1-23.16.88,51.35,51.35,0,0,0,47.92,35.62,102.92,102.92,0,0,1-63.7,22A104.41,104.41,0,0,1,75,278.55a145.21,145.21,0,0,0,78.62,23"
      />
      <rect
        fill="none"
        width="400"
        height="400"
      />
    </g>
  </symbol>
  <symbol
    viewBox="0 0 400 400"
    id="twitter-color"
  >
    <g data-name="Dark Blue">
      <rect
        width="400"
        height="400"
      />
    </g>
    <g data-name="Logo — FIXED">
      <path
        fill="#fff"
        d="M153.62,301.59c94.34,0,145.94-78.16,145.94-145.94,0-2.22,0-4.43-.15-6.63A104.36,104.36,0,0,0,325,122.47a102.38,102.38,0,0,1-29.46,8.07,51.47,51.47,0,0,0,22.55-28.37,102.79,102.79,0,0,1-32.57,12.45,51.34,51.34,0,0,0-87.41,46.78A145.62,145.62,0,0,1,92.4,107.81a51.33,51.33,0,0,0,15.88,68.47A50.91,50.91,0,0,1,85,169.86c0,.21,0,.43,0,.65a51.31,51.31,0,0,0,41.15,50.28,51.21,51.21,0,0,1-23.16.88,51.35,51.35,0,0,0,47.92,35.62,102.92,102.92,0,0,1-63.7,22A104.41,104.41,0,0,1,75,278.55a145.21,145.21,0,0,0,78.62,23"
      />
      <rect
        fill="none"
        width="400"
        height="400"
      />
    </g>
  </symbol>
  <symbol
    viewBox="0 0 24 24"
    id="linkedin"
  >
    <path
      fill="#0077b5"
      d="M0 0v24h24v-24h-24zm8 19h-3v-11h3v11zm-1.5-12.268c-.966 0-1.75-.79-1.75-1.764s.784-1.764 1.75-1.764 1.75.79 1.75 1.764-.783 1.764-1.75 1.764zm13.5 12.268h-3v-5.604c0-3.368-4-3.113-4 0v5.604h-3v-11h3v1.765c1.397-2.586 7-2.777 7 2.476v6.759z"
    />
  </symbol>
  <symbol
    viewBox="0 0 24 24"
    id="linkedin-color"
  >
    <path
      fill="currentColor"
      d="M0 0v24h24v-24h-24zm8 19h-3v-11h3v11zm-1.5-12.268c-.966 0-1.75-.79-1.75-1.764s.784-1.764 1.75-1.764 1.75.79 1.75 1.764-.783 1.764-1.75 1.764zm13.5 12.268h-3v-5.604c0-3.368-4-3.113-4 0v5.604h-3v-11h3v1.765c1.397-2.586 7-2.777 7 2.476v6.759z"
    />
  </symbol>
  <symbol
    viewBox="0 0 24 24"
    id="github"
    fill="#000"
  >
    <path
      d="M12 0c-6.626 0-12 5.373-12 12 0 5.302 3.438 9.8 8.207 11.387.599.111.793-.261.793-.577v-2.234c-3.338.726-4.033-1.416-4.033-1.416-.546-1.387-1.333-1.756-1.333-1.756-1.089-.745.083-.729.083-.729 1.205.084 1.839 1.237 1.839 1.237 1.07 1.834 2.807 1.304 3.492.997.107-.775.418-1.305.762-1.604-2.665-.305-5.467-1.334-5.467-5.931 0-1.311.469-2.381 1.236-3.221-.124-.303-.535-1.524.117-3.176 0 0 1.008-.322 3.301 1.23.957-.266 1.983-.399 3.003-.404 1.02.005 2.047.138 3.006.404 2.291-1.552 3.297-1.23 3.297-1.23.653 1.653.242 2.874.118 3.176.77.84 1.235 1.911 1.235 3.221 0 4.609-2.807 5.624-5.479 5.921.43.372.823 1.102.823 2.222v3.293c0 .319.192.694.801.576 4.765-1.589 8.199-6.086 8.199-11.386 0-6.627-5.373-12-12-12z"
    />
  </symbol>

  <symbol
    viewBox="0 0 24 24"
    id="github-color"
  >
    <path
      d="M12 0c-6.626 0-12 5.373-12 12 0 5.302 3.438 9.8 8.207 11.387.599.111.793-.261.793-.577v-2.234c-3.338.726-4.033-1.416-4.033-1.416-.546-1.387-1.333-1.756-1.333-1.756-1.089-.745.083-.729.083-.729 1.205.084 1.839 1.237 1.839 1.237 1.07 1.834 2.807 1.304 3.492.997.107-.775.418-1.305.762-1.604-2.665-.305-5.467-1.334-5.467-5.931 0-1.311.469-2.381 1.236-3.221-.124-.303-.535-1.524.117-3.176 0 0 1.008-.322 3.301 1.23.957-.266 1.983-.399 3.003-.404 1.02.005 2.047.138 3.006.404 2.291-1.552 3.297-1.23 3.297-1.23.653 1.653.242 2.874.118 3.176.77.84 1.235 1.911 1.235 3.221 0 4.609-2.807 5.624-5.479 5.921.43.372.823 1.102.823 2.222v3.293c0 .319.192.694.801.576 4.765-1.589 8.199-6.086 8.199-11.386 0-6.627-5.373-12-12-12z"
    />
  </symbol>
  <symbol
    fill="none"
    viewBox="0 0 24 24"
    stroke="#fff"
    id="trash"
  >
    <path
      stroke-linecap="round"
      stroke-linejoin="round"
      stroke-width="2"
      d="M19 7l-.867 12.142A2 2 0 0116.138 21H7.862a2 2 0 01-1.995-1.858L5 7m5 4v6m4-6v6m1-10V4a1 1 0 00-1-1h-4a1 1 0 00-1 1v3M4 7h16"
    />
  </symbol>

  <symbol
    viewBox="0 0 20 20"
    fill="currentColor"
    id="website"
  >
    <path
      fill-rule="evenodd"
      d="M4.083 9h1.946c.089-1.546.383-2.97.837-4.118A6.004 6.004 0 004.083 9zM10 2a8 8 0 100 16 8 8 0 000-16zm0 2c-.076 0-.232.032-.465.262-.238.234-.497.623-.737 1.182-.389.907-.673 2.142-.766 3.556h3.936c-.093-1.414-.377-2.649-.766-3.556-.24-.56-.5-.948-.737-1.182C10.232 4.032 10.076 4 10 4zm3.971 5c-.089-1.546-.383-2.97-.837-4.118A6.004 6.004 0 0115.917 9h-1.946zm-2.003 2H8.032c.093 1.414.377 2.649.766 3.556.24.56.5.948.737 1.182.233.23.389.262.465.262.076 0 .232-.032.465-.262.238-.234.498-.623.737-1.182.389-.907.673-2.142.766-3.556zm1.166 4.118c.454-1.147.748-2.572.837-4.118h1.946a6.004 6.004 0 01-2.783 4.118zm-6.268 0C6.412 13.97 6.118 12.546 6.03 11H4.083a6.004 6.004 0 002.783 4.118z"
      clip-rule="evenodd"
    />
  </symbol>

  <symbol
    viewBox="0 0 20 20"
    id="link"
  >
    <path
      d="M12.232 4.232a2.5 2.5 0 0 1 3.536 3.536l-1.225 1.224a.75.75 0 0 0 1.061 1.06l1.224-1.224a4 4 0 0 0-5.656-5.656l-3 3a4 4 0 0 0 .225 5.865.75.75 0 0 0 .977-1.138 2.5 2.5 0 0 1-.142-3.667l3-3Z"
    />
    <path
      d="M11.603 7.963a.75.75 0 0 0-.977 1.138 2.5 2.5 0 0 1 .142 3.667l-3 3a2.5 2.5 0 0 1-3.536-3.536l1.225-1.224a.75.75 0 0 0-1.061-1.06l-1.224 1.224a4 4 0 1 0 5.656 5.656l3-3a4 4 0 0 0-.225-5.865Z"
    />

  </symbol>

  <symbol
    viewBox="0 -960 960 960"
    id="open-in-new-tab"
    fill="currentColor"
  >
    <path
      d="M216-144q-29.7 0-50.85-21.15Q144-186.3 144-216v-528q0-29.7 21.15-50.85Q186.3-816 216-816h264v72H216v528h528v-264h72v264q0 29.7-21.15 50.85Q773.7-144 744-144H216Zm171-192-51-51 357-357H576v-72h240v240h-72v-117L387-336Z"
    />
  </symbol>

  <symbol
    viewBox="-2 -1 24 24"
    id="calendar"
  >
    <path
      d="M20 15.693l-5.141 1.282-4.82-.996-4.935.996L0 15.687V15a3 3 0 0 1 3-3h14a3 3 0 0 1 3 3v.693zm0 2.063V22H0v-4.25l5.057 1.275 4.978-1.004 4.859 1.004L20 17.756zM7 9h6v2H7V9zm3-.6a3 3 0 0 1-3-3C7 4.295 8 2.495 10 0c2 2.495 3 4.295 3 5.4a3 3 0 0 1-3 3z"
    />
  </symbol>

  <symbol
    viewBox="0 0 512 512"
    id="earth"
  >
    <path
      d="M491.874,156.349c-19.451-45.961-51.883-85.014-92.731-112.619C358.303,16.125,308.967-0.008,256.004,0 c-35.306,0-69.024,7.161-99.662,20.118C110.396,39.569,71.335,72.01,43.738,112.849C16.133,153.69-0.008,203.032,0,255.996 c-0.008,35.306,7.161,69.017,20.118,99.655c19.451,45.953,51.891,85.014,92.739,112.611C153.69,495.867,203.032,512,256.004,512 c35.298,0,69.017-7.169,99.647-20.126c45.952-19.452,85.006-51.883,112.611-92.731C495.867,358.302,512,308.968,512,255.996 C512,220.697,504.831,186.979,491.874,156.349z M298.654,344.575c-9.94,14.069-2.064,35.314-13.688,47.509 c-11.702,12.243-17.45,8.4-24.89,25.716c-0.928,2.175-13.64,30.749-17.268,21.682c3.295,8.177,0.254,15.886-9.305,15.878 c-9.488-0.016,1.723,7.915-7.487,10.17c-2.732,0.73-3.033,6.296-1.866,13.456c-6.979-0.984-13.87-2.286-20.634-3.897 c-9.258-29.114-14.386-63.523-14.45-72.598c-0.15-31.432-6.534-19.031-21.944-42.158c-10.456-15.735-19.49-32.694-19.046-51.883 c-0.111,3.454,20.174-48.604,5.51-38.688c-17.816,12.06-21.031-16.72-38.172-19.182c-8.75-1.254-6.201-10.837-16.07-9.273 c-8.876,1.405-19.102-7.757-25.882-12.663c-4.382-3.192-12.608-49.002-19.332-48.89c-9.511,0.055,7.352,31.956,3.882,32.726 c-4.184,0.841-10.639-15.522-15.108-29.614c1.676-4.922,3.525-9.781,5.542-14.537c17.085-40.411,45.667-74.82,81.632-99.114 c12.227-8.265,25.326-15.315,39.094-21.078c0.667-0.033,1.341-0.072,2.008-0.168c12.441-1.468,48.907-15.759,59.101-4.62 c4.287,4.557-55.131,26.12-56.862,35.37c-1.135,6.034,14.648,4.978,16.03,5.073c15.863,0.961-4.628,16.839,5.049,19.57 c14.569,3.906,29.066-62.078,40.237-28.502c4.566,13.632,24.064-10.305,25.446,6.478c1.421,17.507,17.419,21.905-12.433,26.66 c-27.43,4.414-5.438,15.57-23.397,24.961c-16.991,8.892-31.837,13.06-43.833,29.002c-13.434,17.88-14.577,17.316-19.88,39.213 c-2.866,11.869-17.189-8.09-11.615-15.664c-1.946,2.62-18.848-5.661-20.548-1.39c-3.302,8.281-12.203,3.803-19.22,8.781 c-8.884,6.272-17.491,26.509-8.575,36.028c7.098,7.638,31.344-16.37,32.67-8.185c1.016,6.304-8.614,10.734-7.558,16.998 c1.501,9.051,16.332-2.596,16.332,4.43c-0.008,4.526-6.002,29.352,7.074,24.636c7.058-2.541,8.996,2.866,13.449,1.739 c6.09-1.54,9.67-15.8,16.967-14.744c8.638,1.246,21.809,5.208,30.502,7.709c14.196,4.09,13.449,16.07,29.947,18.57 c16.855,2.557,10.202,17.674,8.13,26.12C246.414,313.516,326.76,304.934,298.654,344.575z M392.307,125.934 c0.007,0,14.942,0.167,18.109-0.325c3.168-0.493,3.065-7.948,3.034-9.536c-0.024-1.611-8.575-5.438-6.471-6.47 c2.111-1.032,7.391-2.549,8.955-3.589c0.731-0.484,2.564-2.08,4.541-3.85c6.526,6.962,12.616,14.346,18.229,22.102 c-1.032,0.651-2.096,1.43-2.866,2.208c-2.072,2.104-8.456-0.643-8.456-0.643c-2.779,2.969-5.55,5.962-8.344,8.956 c-1.374,3.184-2.74,6.383-4.121,9.574c0,0-9.519,4.724-13.782,5.224c-4.264,0.492-11.258-3.335-12.362-4.954 C387.71,143.011,392.314,125.917,392.307,125.934z M463.547,343.662c-1.342,3.176-2.779,6.304-4.264,9.401 c-1.492-4.7-2.969-8.876-4.27-11.139c-3.105-5.344-7.257-11.766-1.898-24.723c5.366-12.957-3.002-29.114-7.217-33.44 c-4.216-4.311-4.2-7.558,0.024-14.052c4.223-6.487-1.048-8.654-5.28-8.654c-4.24,0-7.424-7.582-12.735-6.502 c-5.304,1.072-25.589,6.494-33.123,5.406c-7.48-1.072-31.242-23.952-31.29-29.415c0-5.454,1.001-26.112,3.144-29.352 c2.16-3.247,13.918-18.046,18.157-24.493c4.24-6.454,10.592-15.021,15.926-16.054c5.359-1.032,29.765-5.081,37.101-7.129 c7.352-2.057,6.352,1.897,8.519,6.208c1.413,0.191,2.811,0.389,4.216,0.58c0.008,0,5.812,1.144,9.504,3.866 c0.754,0.556,1.564,1.088,2.39,1.62c12.083,27.613,18.784,58.092,18.792,90.207C481.235,287.142,474.932,316.724,463.547,343.662z"
    />
  </symbol>

</svg>